<?xml version="1.0" standalone="no"?>
<svg xmlns="http://www.w3.org/2000/svg"
     width="512.000000pt" height="512.000000pt" viewBox="0 0 512.000000 512.000000"
     preserveAspectRatio="xMidYMid meet">

  <g transform="translate(0.000000,512.000000) scale(0.100000,-0.100000)"
     fill="#000000" stroke="none">
    <path d="M2415 4763 c-61 -9 -183 -43 -250 -71 -122 -51 -1066 -472 -1129
-504 -98 -49 -176 -106 -257 -187 -156 -156 -258 -361 -288 -575 -15 -106 -15
-1626 0 -1732 42 -301 228 -579 488 -732 116 -68 1235 -557 1332 -583 166 -43
393 -36 554 16 70 23 1094 474 1219 537 98 49 176 106 257 187 156 156 258
361 288 575 15 106 15 1626 0 1732 -45 323 -254 615 -545 762 -107 54 -1140
511 -1206 533 -98 33 -203 48 -323 47 -60 0 -123 -3 -140 -5z m360 -345 c39
-14 315 -134 615 -268 501 -222 660 -299 660 -319 0 -4 -335 -156 -744 -338
l-745 -331 -745 331 c-410 182 -746 335 -746 338 0 4 23 21 51 39 66 40 1200
543 1259 558 25 6 54 14 65 16 11 3 74 3 140 2 96 -3 134 -9 190 -28z m-375
-2631 l0 -1099 -32 7 c-51 11 -1194 522 -1254 560 -124 80 -230 220 -282 372
l-27 78 0 850 c0 905 -2 867 45 990 9 23 15 21 779 -318 l770 -342 1 -1098z
m1890 1698 l25 -70 0 -855 0 -855 -28 -80 c-55 -156 -156 -290 -278 -368 -87
-56 -1241 -567 -1279 -567 -7 0 -9 402 -8 1097 l3 1097 755 337 c415 186 762
337 770 336 9 -1 25 -30 40 -72z" />
  </g>
</svg>
