<?xml version="1.0" standalone="no"?>
<svg xmlns="http://www.w3.org/2000/svg"
     width="512.000000pt" height="512.000000pt" viewBox="0 0 512.000000 512.000000"
     preserveAspectRatio="xMidYMid meet">

  <g transform="translate(0.000000,512.000000) scale(0.100000,-0.100000)"
     fill="#000000" stroke="none">
    <path d="M4185 5028 c-3 -13 -4 -74 -3 -137 3 -96 6 -116 21 -125 12 -8 22 -8
35 0 14 9 17 30 20 134 3 131 -3 150 -44 150 -16 0 -25 -7 -29 -22z" />
    <path d="M3582 4788 c-23 -23 -11 -44 76 -131 87 -86 107 -98 130 -75 23 23
11 43 -75 130 -87 87 -108 99 -131 76z" />
    <path d="M4723 4718 c-73 -72 -84 -86 -81 -113 2 -24 8 -31 28 -33 21 -2 42
14 113 86 87 89 97 108 75 130 -25 25 -53 10 -135 -70z" />
    <path d="M759 4728 c-6 -7 -28 -47 -48 -88 -36 -74 -37 -75 -96 -96 -33 -12
-79 -31 -102 -43 l-42 -21 -76 30 c-42 16 -81 30 -88 30 -7 0 -36 -24 -64 -52
l-51 -53 29 -75 c35 -90 35 -98 5 -158 -13 -26 -31 -70 -40 -98 -17 -51 -17
-52 -99 -85 l-82 -34 0 -80 0 -79 71 -31 c86 -37 100 -48 109 -83 3 -15 20
-58 37 -95 35 -76 34 -84 -10 -194 l-21 -51 55 -55 55 -55 85 34 84 34 53 -26
c28 -15 75 -34 102 -43 49 -16 51 -19 92 -104 37 -75 46 -87 68 -87 22 0 24
-3 15 -19 -15 -29 -14 -623 2 -639 16 -16 899 -17 914 -2 8 8 13 -11 17 -62 7
-87 37 -189 79 -273 35 -70 104 -169 142 -204 l26 -24 0 120 c0 142 11 209 46
282 52 105 181 203 289 218 44 6 56 15 34 29 -6 3 -22 30 -35 58 -21 45 -24
65 -24 178 0 115 -2 128 -19 137 -10 6 -29 31 -41 56 -18 38 -20 50 -10 79 6
18 20 42 30 51 11 10 20 25 20 33 0 28 40 80 74 96 42 20 82 20 118 2 23 -12
33 -12 68 0 49 17 101 7 145 -28 19 -15 39 -21 61 -19 57 4 116 -38 135 -98 7
-20 23 -49 36 -65 23 -28 24 -33 18 -135 -6 -86 -12 -118 -35 -166 -26 -58
-59 -102 -91 -121 -14 -9 -59 -67 -59 -77 0 -2 17 -7 39 -10 72 -9 157 -56
216 -118 96 -100 124 -192 125 -398 0 -119 0 -119 75 -21 92 120 145 248 168
405 7 50 16 84 21 77 5 -9 105 -12 422 -12 l414 0 0 -284 c0 -245 2 -287 16
-300 14 -15 12 -16 -19 -16 -57 0 -184 -38 -260 -77 -108 -56 -223 -174 -275
-284 -128 -265 -78 -557 130 -760 77 -75 185 -137 288 -165 87 -23 243 -23
329 0 225 61 398 232 467 462 28 91 26 258 -4 354 -55 175 -178 322 -333 399
-80 39 -191 70 -252 71 -27 0 -28 1 -13 22 24 33 24 603 0 636 l-15 22 -439 0
c-385 0 -440 -2 -454 -16 -15 -14 -16 -12 -16 21 0 59 -30 185 -62 262 -117
282 -371 472 -681 509 -42 5 -55 10 -48 17 8 8 11 143 11 424 l0 413 284 0
c305 0 311 1 304 52 l-3 23 -319 3 c-227 2 -323 -1 -332 -9 -12 -9 -14 -91
-14 -453 0 -302 3 -445 11 -453 7 -7 -6 -12 -48 -17 -139 -17 -274 -65 -386
-140 -113 -75 -235 -222 -293 -351 -32 -74 -64 -206 -64 -269 0 -47 -1 -48
-18 -33 -17 15 -61 17 -430 17 l-412 0 0 290 c0 225 -3 290 -12 291 -7 1 2 4
20 8 30 5 36 13 70 90 l37 84 65 22 c36 12 84 32 106 43 l42 21 83 -34 84 -34
53 52 c28 28 52 56 52 62 0 5 -14 45 -31 88 l-32 78 36 77 c19 42 39 91 44
107 8 25 22 35 90 64 80 34 81 35 87 76 4 23 4 60 0 82 -6 39 -8 40 -87 74
-68 29 -82 39 -90 64 -5 17 -25 65 -44 107 l-36 77 32 78 c17 43 31 83 31 88
0 15 -93 105 -108 105 -6 0 -46 -14 -89 -31 l-77 -30 -46 22 c-25 13 -72 33
-105 45 l-60 22 -35 80 c-23 54 -42 82 -55 86 -37 10 -124 6 -136 -6z m176
-323 c240 -51 406 -253 407 -496 0 -150 -48 -267 -154 -371 -113 -111 -285
-166 -436 -139 -133 24 -269 110 -343 217 -69 101 -103 258 -80 379 29 156
139 300 281 368 117 56 204 67 325 42z m3437 -2746 c79 -16 187 -73 245 -128
172 -165 218 -398 118 -607 -89 -186 -264 -296 -470 -296 -469 0 -698 563
-364 892 122 120 303 174 471 139z" />
    <path d="M760 4329 c-126 -21 -252 -114 -310 -228 -133 -264 25 -571 320 -623
160 -28 337 54 428 200 49 78 65 142 60 246 -3 76 -9 102 -35 157 -84 181
-269 280 -463 248z" />
    <path d="M4149 1572 c-211 -55 -356 -275 -321 -487 24 -148 115 -272 245 -334
266 -127 578 36 627 329 38 225 -125 458 -349 500 -74 14 -125 12 -202 -8z
m139 -91 c8 -4 16 -26 19 -47 5 -34 11 -42 47 -59 73 -35 113 -130 66 -155
-28 -15 -51 0 -64 41 -9 27 -20 37 -52 48 -36 13 -47 13 -80 0 -26 -10 -42
-24 -48 -42 -15 -42 17 -68 95 -79 71 -9 123 -38 150 -82 41 -67 9 -155 -70
-191 -31 -13 -41 -24 -41 -41 0 -33 -10 -53 -31 -65 -25 -13 -59 21 -59 59 0
23 -8 32 -45 50 -52 25 -87 74 -83 116 5 55 68 61 76 8 9 -59 116 -84 168 -39
21 18 26 29 21 48 -8 32 -34 46 -107 58 -34 6 -76 19 -93 30 -96 59 -85 186
20 236 36 17 42 24 43 52 0 48 35 76 68 54z" />
    <path d="M4091 4634 c-216 -58 -371 -260 -371 -484 0 -161 72 -299 211 -406
32 -25 64 -55 71 -67 7 -12 15 -56 18 -97 l5 -75 195 0 195 0 5 80 c6 94 14
107 96 168 209 154 263 450 123 669 -39 61 -128 142 -190 174 -106 53 -246 68
-358 38z" />
    <path d="M3332 4178 c-6 -6 -12 -19 -12 -28 0 -34 22 -40 146 -40 131 0 149 6
142 52 -3 23 -6 23 -133 26 -93 2 -134 -1 -143 -10z" />
    <path d="M4830 4171 c-13 -25 -13 -27 6 -45 12 -13 39 -16 130 -16 120 0 154
9 154 38 0 36 -20 42 -152 42 -116 0 -128 -2 -138 -19z" />
    <path d="M3663 3658 c-90 -88 -108 -122 -78 -145 11 -7 23 -13 28 -13 5 0 49
39 98 87 93 90 108 122 70 143 -11 5 -23 10 -27 10 -3 0 -44 -37 -91 -82z" />
    <path d="M4658 3729 c-37 -21 -21 -53 71 -142 49 -48 93 -87 99 -87 15 0 42
29 42 44 0 11 -181 196 -191 196 -2 0 -12 -5 -21 -11z" />
    <path d="M4000 3400 c0 -20 5 -20 217 -18 198 3 218 5 221 21 3 16 -12 17
-217 17 -215 0 -221 -1 -221 -20z" />
    <path d="M4001 3287 c-6 -8 -8 -17 -4 -20 3 -4 105 -7 225 -7 204 0 219 1 216
18 -3 15 -23 17 -214 20 -169 2 -214 0 -223 -11z" />
    <path d="M3996 3161 c-16 -26 27 -31 230 -29 190 3 209 5 212 21 3 16 -12 17
-217 17 -121 0 -222 -4 -225 -9z" />
    <path d="M2371 3104 c-17 -12 -21 -22 -17 -40 6 -24 -22 -64 -45 -64 -20 0 -4
-53 22 -72 28 -21 94 -32 264 -46 116 -10 185 -33 200 -69 5 -10 11 -40 15
-68 l6 -50 14 43 c11 36 11 50 1 78 -11 30 -11 38 3 53 25 27 19 54 -15 73
-26 15 -30 22 -24 46 8 37 -27 76 -61 68 -13 -3 -34 -9 -47 -12 -19 -4 -29 2
-51 30 -21 28 -34 36 -60 36 -20 0 -40 -8 -51 -20 -24 -27 -53 -25 -81 5 -27
29 -41 31 -73 9z" />
    <path d="M4125 3027 c34 -52 115 -63 164 -21 17 14 31 30 31 35 0 5 -47 9
-105 9 l-105 0 15 -23z" />
    <path d="M2370 2722 c0 -73 5 -107 19 -138 57 -126 231 -139 308 -23 22 34 27
55 31 124 4 77 3 84 -17 95 -20 10 -90 19 -273 34 l-68 5 0 -97z" />
    <path d="M2492 2343 l58 -58 50 50 c27 27 50 53 50 57 0 4 -48 8 -107 8 l-108
0 57 -57z" />
    <path d="M2255 2361 c-73 -34 -145 -110 -171 -179 -13 -36 -18 -88 -22 -225
-5 -201 -12 -181 85 -237 29 -16 57 -30 63 -30 6 0 11 80 12 211 3 189 5 213
21 223 12 8 22 8 35 0 15 -10 17 -35 20 -241 l2 -230 41 -12 c22 -7 72 -15
111 -18 65 -6 69 -8 64 -27 -3 -12 -6 -204 -6 -428 l0 -408 -288 0 c-211 0
-291 -3 -300 -12 -9 -9 -12 -3 -12 28 0 62 -26 151 -72 244 -78 160 -241 289
-423 335 -76 19 -232 19 -314 0 -168 -40 -337 -174 -419 -331 -52 -102 -72
-183 -72 -304 0 -116 17 -188 72 -300 79 -162 242 -290 428 -336 87 -22 259
-15 350 15 237 76 421 300 447 543 5 51 8 56 24 48 27 -15 632 -13 647 2 16
16 17 893 2 903 -23 14 -7 25 36 25 25 0 76 7 115 16 l69 16 0 227 c0 228 3
251 36 251 7 0 20 -7 28 -16 14 -13 16 -47 16 -220 0 -112 2 -204 5 -204 10 0
89 42 118 62 l27 19 0 177 c0 97 -5 194 -10 214 -24 87 -112 178 -205 214
l-46 17 -102 -101 c-62 -61 -110 -102 -122 -102 -12 0 -60 40 -120 100 -55 55
-102 100 -105 100 -3 0 -32 -13 -65 -29z m-907 -1064 c15 -12 16 -39 0 -55
-13 -13 -156 -17 -174 -4 -18 12 -23 39 -11 56 19 24 155 27 185 3z m338 -165
c48 -50 56 -85 24 -102 -18 -10 -29 -3 -85 51 -36 34 -65 68 -65 75 0 7 10 20
22 28 27 19 45 10 104 -52z m-738 29 c3 -18 -10 -38 -54 -82 -32 -33 -64 -59
-71 -59 -6 0 -19 10 -27 22 -14 19 -13 24 2 51 47 80 142 124 150 68z m630
-151 c2 -20 -23 -51 -138 -165 l-140 -140 0 -120 c0 -81 -4 -125 -12 -133 -17
-17 -55 -15 -62 4 -3 9 -6 75 -6 147 l0 132 153 153 c125 125 157 152 177 150
18 -2 26 -10 28 -28z m-840 -202 c12 -12 17 -143 6 -172 -7 -18 -59 -22 -69
-6 -8 14 -9 142 -1 168 8 24 44 30 64 10z m1107 -11 c3 -12 5 -53 3 -91 -3
-76 -21 -102 -55 -80 -14 9 -19 28 -21 89 -4 96 0 105 37 105 23 0 32 -5 36
-23z m-949 -439 c35 -33 64 -67 64 -74 0 -22 -41 -44 -61 -34 -38 21 -109 102
-109 125 0 19 20 43 38 45 2 0 33 -28 68 -62z m815 52 c10 -6 19 -21 19 -33 0
-28 -97 -127 -125 -127 -23 0 -45 17 -45 35 0 11 118 135 127 135 2 0 13 -5
24 -10z m-357 -222 c8 -13 8 -23 0 -35 -9 -14 -28 -19 -88 -21 -81 -3 -106 6
-106 37 0 34 22 42 104 39 62 -2 81 -7 90 -20z" />
  </g>
</svg>
